<?xml version="1.0" encoding="UTF-8" standalone="no"?>
<!DOCTYPE svg PUBLIC "-//W3C//DTD SVG 1.1//EN" "http://www.w3.org/Graphics/SVG/1.1/DTD/svg11.dtd">
<svg width="100%" height="100%" viewBox="0 0 832 832" version="1.1" xmlns="http://www.w3.org/2000/svg" xmlns:xlink="http://www.w3.org/1999/xlink" xml:space="preserve" xmlns:serif="http://www.serif.com/" style="fill-rule:evenodd;clip-rule:evenodd;stroke-linejoin:round;stroke-miterlimit:2;">
    <path d="M625.067,260.382C626.996,264.559 628.988,268.709 630.844,272.918C639.591,292.75 645.184,313.423 647.012,335.045C647.849,344.936 648.911,354.86 648.841,364.762C648.772,374.653 647.416,384.534 646.053,394.925C644.022,399.652 642.625,403.896 641.094,408.091C632.448,431.788 617.167,449.036 592.925,457.565C590.123,458.551 587.027,459.177 584.652,460.817C576.078,466.737 567.151,472.367 559.553,479.399C554.641,483.945 550.995,490.386 548.269,496.627C545.142,503.786 542.66,511.062 536.91,516.722C535.088,518.516 533.945,521.001 532.262,522.89C531.245,521.845 530.457,521.08 529.669,520.314C529.116,521.21 528.563,522.105 527.638,523.04C525.631,523.749 523.958,524.343 522.364,525.102C515.074,528.578 507.575,526.355 500.006,525.717C498.818,525.027 497.766,524.604 496.333,524.051C489.244,521.724 483.46,518.296 479.545,512.143C478.73,510.863 477.239,510.012 475.989,508.553C476.107,501.15 475.766,494.091 476.633,487.183C477.488,480.374 479.564,473.718 481.442,466.937C482.23,466.237 482.78,465.644 483.117,464.948C489.636,451.482 498.815,440.437 512.001,432.994C526.212,424.972 541.326,424.444 556.903,427.434C558.713,427.782 560.6,427.732 562.451,427.867C562.611,427.424 562.771,426.982 562.932,426.54C561.447,425.46 560.106,424.028 558.455,423.353C535.94,414.146 510.294,419.202 493.142,436.393C488.572,440.973 484.42,445.969 479.868,450.567C473.903,456.593 465.941,456.508 460.071,450.577C458.232,448.72 456.45,446.807 454.632,444.502C454.953,442.459 455.325,440.841 455.609,439.208C456.977,431.361 458.667,423.55 459.583,415.65C460.661,406.354 457.698,401.259 449.69,397.136C447.321,396.252 445.312,395.179 443.216,394.965C432,393.82 420.764,392.866 409.531,391.893C404.741,391.479 399.743,391.884 395.208,390.608C391.482,389.559 388.855,390.155 385.982,392.137C372.619,401.353 368.689,422.145 377.432,438.328C383.104,448.465 391.759,453.734 402.772,454.99C419.093,456.852 434.809,460.22 448.008,471.306C446.996,479.447 446.417,487.232 444.893,494.828C441.668,510.9 436.02,525.998 426.369,539.53C419.06,549.778 410.46,558.501 400.505,566.207C385.732,577.641 369.388,585.016 350.996,588.088C345.907,588.938 340.907,590.322 335.578,591.272C334.718,590.099 334.147,589.115 333.958,588.085C337.23,586.158 340.391,584.583 342.943,582.32C346.275,579.364 344.987,574.701 340.543,574.32C333.794,573.742 326.93,573.727 320.178,574.266C315.635,574.629 314.702,578.414 318.189,581.621C320.84,584.06 324.025,585.919 326.747,588.308C325.419,588.946 324.284,589.708 323.222,589.618C311.669,588.631 300.134,587.593 289.536,582.128C287.264,580.956 284.532,580.677 281.711,579.841C277.956,576.781 274.5,573.868 270.882,570.665C256.708,555.994 246.367,539.449 241.376,520C268.802,530.715 295.681,519.055 305.998,491.831C308.459,485.337 310.258,478.486 311.465,471.642C315.163,450.682 316.648,429.655 311.099,408.718C308.891,400.388 304.808,393.372 296.985,389.056C298.135,387.461 298.938,385.195 300.496,384.389C306.953,381.046 313.638,378.145 321.028,375.046C329.004,374.012 336.163,372.516 343.383,372.107C364.789,370.897 385.175,374.761 404.037,385.444C405.641,386.353 407.662,386.527 409.489,387.042C409.717,386.582 409.946,386.122 410.174,385.661C409.482,384.636 409.019,383.232 408.058,382.646C402.014,378.958 396.181,374.647 389.676,372.047C374.923,366.148 359.555,363.181 343.545,365.895C337.37,366.942 331.194,367.985 325.018,369.03C327.332,363.393 329.352,357.612 332.021,352.15C336.979,342.006 342.34,332.061 347.489,322.01C358.396,300.715 370.753,280.333 385.869,261.733C401.51,242.487 421.071,228.245 443.302,217.532C444.273,217.064 445.559,217.249 446.908,217.483C435.566,227.128 436.724,235.641 450.349,241.545C451.111,241.875 451.875,242.225 452.671,242.452C479.23,250.023 505.354,248.976 530.776,237.931C534.614,236.263 538.201,233.345 541.06,230.231C547.424,223.299 546.282,216.148 538.443,210.838C536.4,209.454 534.107,208.437 531.929,207.251C535.255,206.88 538.854,205.504 541.859,206.319C552.147,209.11 562.227,212.67 573.022,216.186C593.478,225.623 608.994,239.848 621.709,257.386C622.569,258.573 623.936,259.392 625.067,260.382M583.812,277.302C567.341,297.567 572.831,337.079 594.225,352.239C606.527,360.957 619.989,357.559 626.625,343.893C630.963,334.959 631.863,325.348 630.862,315.636C629.281,300.293 624.157,286.451 611.832,276.319C602.81,268.902 593.01,269.235 583.812,277.302M380.549,539.508C375.299,540.03 370.02,540.357 364.812,541.154C362.148,541.562 359.506,542.598 357.087,543.813C356.392,544.162 355.991,546.363 356.411,547.277C356.766,548.051 358.527,548.613 359.618,548.543C364.885,548.203 370.132,547.589 375.391,547.128C384.166,546.357 391.258,542.494 396.272,535.281C397.129,534.048 396.522,531.796 396.591,530.015C394.908,530.553 393.009,530.762 391.584,531.695C388.034,534.018 384.699,536.672 380.549,539.508M305.821,544.933C303.039,540.809 298.693,541.097 294.577,541.166C285.684,541.317 277.823,539.324 271.915,531.991C271.118,531.002 268.894,531.163 267.331,530.791C267.384,532.426 266.808,534.5 267.593,535.625C272.42,542.543 279.14,546.4 287.637,547.093C292.422,547.483 297.188,548.279 301.974,548.387C303.298,548.417 304.664,546.639 305.821,544.933Z" style="fill:rgb(246,247,247);fill-rule:nonzero;"/>
    <path d="M636.991,591.017C636.191,596.841 635.39,602.665 634.094,608.6C631.547,613.177 629.62,617.706 627.42,622.099C618.88,639.147 607.717,654.127 593.583,667.092C577.039,682.268 558.347,694.147 538.456,704.088C518.611,714.005 497.974,722.25 476.05,726.394C457.078,729.98 438.052,733.599 418.886,735.721C405.971,737.151 392.769,735.861 379.699,736.041C360.061,736.312 340.632,734.269 321.562,729.872C304.498,725.938 287.335,721.897 270.871,716.056C256.153,710.834 241.989,703.716 228.226,696.245C218.545,690.99 209.915,683.784 200.883,677.354C198.134,675.397 195.612,673.12 192.986,670.99C183.809,655.636 176.76,639.333 172.103,622.089C169.87,613.82 168.658,605.274 167.288,596.571C168.168,597.087 168.888,597.818 169.299,598.694C175.418,611.739 185.527,621.459 196.791,629.733C218.568,645.731 243.216,656.124 269.208,662.832C288.556,667.825 308.261,671.598 327.964,675.002C342.107,677.447 356.499,679.611 370.799,679.741C400.34,680.009 429.994,681.861 459.401,677.028C476.492,674.219 493.767,672.231 510.628,668.409C527.879,664.498 545.077,659.75 561.653,653.621C578.876,647.254 595.353,638.615 609.472,626.661C617.214,620.106 623.71,611.967 630.15,604.04C633.181,600.309 634.756,595.395 636.991,591.017Z" style="fill:rgb(231,232,233);fill-rule:nonzero;"/>
    <path d="M625.122,260.013C623.936,259.392 622.569,258.573 621.709,257.386C608.994,239.848 593.478,225.623 573.397,216.22C582.652,203.289 587.95,188.978 588.295,173.129C588.435,166.729 587.657,160.168 586.267,153.909C584.361,145.323 578.668,139.474 570.853,135.342C562.491,130.92 554.119,126.382 546.32,121.061C537.671,115.16 530.625,107.544 528.14,96.856C522.865,74.167 541.419,54.128 565.17,57.529C592.702,61.471 613.553,76.619 628.742,99.249C650.572,131.775 653.79,167.637 645.417,205.072C641.149,224.155 633.951,242.205 625.122,260.013Z" style="fill:rgb(46,48,52);fill-rule:nonzero;"/>
    <path d="M193.027,671.342C195.612,673.12 198.134,675.397 200.883,677.354C209.915,683.784 218.545,690.99 228.226,696.245C241.989,703.716 256.153,710.834 270.871,716.056C287.335,721.897 304.498,725.938 321.562,729.872C340.632,734.269 360.061,736.312 379.699,736.041C392.769,735.861 405.971,737.151 418.886,735.721C438.052,733.599 457.078,729.98 476.05,726.394C497.974,722.25 518.611,714.005 538.456,704.088C558.347,694.147 577.039,682.268 593.583,667.092C607.717,654.127 618.88,639.147 627.42,622.099C629.62,617.706 631.547,613.177 633.819,608.87C630.612,620.795 627.964,632.859 623.595,644.263C615.276,665.977 603.602,685.66 587.194,702.615C570.672,719.688 551.025,731.558 529.596,740.965C506.646,751.041 482.453,756.832 457.826,760.696C446.071,762.54 434.107,763.199 422.21,763.952C411.77,764.614 401.259,765.342 390.834,764.855C349.676,762.93 309.4,756.594 271.313,739.748C250.735,730.646 231.482,719.492 216.406,702.602C207.837,693.003 200.796,682.041 193.027,671.342Z" style="fill:rgb(219,220,222);fill-rule:nonzero;"/>
    <path d="M637.005,590.592C634.756,595.395 633.181,600.309 630.15,604.04C623.71,611.967 617.214,620.106 609.472,626.661C595.353,638.615 578.876,647.254 561.653,653.621C545.077,659.75 527.879,664.498 510.628,668.409C493.767,672.231 476.492,674.219 459.401,677.028C429.994,681.861 400.34,680.009 370.799,679.741C356.499,679.611 342.107,677.447 327.964,675.002C308.261,671.598 288.556,667.825 269.208,662.832C243.216,656.124 218.568,645.731 196.791,629.733C185.527,621.459 175.418,611.739 169.299,598.694C168.888,597.818 168.168,597.087 167.284,596.126C163.202,579.875 164.151,564.534 173.972,550.515C183.85,536.413 196.557,525.503 211.565,517.259C218.199,513.616 225.063,510.385 231.887,507.103C233.329,506.409 235.055,506.307 237.24,506.237C238.498,510.012 239.167,513.483 239.483,517.003C221.37,524.571 204.952,534.134 191.887,548.637C184.468,556.872 179.038,566.414 179.192,577.66C179.439,595.737 190.149,607.977 204.133,618.326C219.997,630.488 237.703,638.501 256.151,644.828C281.145,653.401 306.87,658.785 333.107,662.207C358.676,665.542 384.315,666.671 410.031,666.91C417.156,666.976 424.295,666.431 431.415,665.966C440.508,665.371 449.656,665.043 458.66,663.756C474.371,661.511 490.058,658.97 505.632,655.923C531.497,650.863 556.475,642.896 579.799,630.463C586.901,626.677 593.293,621.558 600.351,616.995C604.108,613.819 607.76,610.914 610.894,607.529C618.044,599.808 623.152,590.886 623.889,580.193C624.699,568.423 619.814,558.513 612.291,549.857C600.493,536.28 585.444,527.192 569.316,519.829C563.789,517.306 557.787,515.822 552.018,513.491C553.669,509.092 555.305,505.065 557.282,501.042C558.076,501.066 558.529,501.086 559.049,501.454C563.574,503.867 567.975,506.064 572.498,507.973C592.984,516.617 611.722,527.714 625.963,545.313C626.917,546.492 628.605,547.078 629.951,547.939C631.959,553.427 633.949,558.922 635.98,564.402C639.122,572.882 638.397,581.509 637.005,590.592Z" style="fill:rgb(246,247,247);fill-rule:nonzero;"/>
    <path d="M239.835,516.954C239.167,513.483 238.498,510.012 237.669,506.204C237.002,499.905 235.82,493.904 236.144,487.987C236.673,478.345 233.797,469.873 228.797,462.051C222.083,451.549 215.476,440.907 207.859,431.072C195.901,415.632 203.283,408.445 215.852,403.231C229.118,397.728 243.258,396.149 257.442,396.376C269.692,396.572 281.226,394.422 292.373,389.55C293.501,389.057 294.888,389.158 296.57,389.019C304.808,393.372 308.891,400.388 311.099,408.718C316.648,429.655 315.163,450.682 311.465,471.642C310.258,478.486 308.459,485.337 305.998,491.831C295.681,519.055 268.802,530.715 241.301,519.685C240.514,518.542 240.174,517.748 239.835,516.954M254.381,445.79C256.555,444.772 258.729,443.753 261.018,442.68C252.394,433.372 229.22,422.46 217.691,422.274C215.791,422.243 213.877,423.102 211.284,423.711C220.21,437.081 228.467,449.452 236.29,461.171C242.068,456.182 247.898,451.148 254.381,445.79Z" style="fill:rgb(46,48,52);fill-rule:nonzero;"/>
    <path d="M629.961,547.488C628.605,547.078 626.917,546.492 625.963,545.313C611.722,527.714 592.984,516.617 572.498,507.973C567.975,506.064 563.574,503.867 559.264,501.16C571.997,495.743 583.004,489.024 588.867,476.167C589.528,474.717 589.431,472.921 589.685,471.286C589.137,471.074 588.589,470.862 588.04,470.65C581.662,482.927 570.282,489.579 559.592,497.04C558.372,497.891 557.809,499.683 556.941,501.038C555.305,505.065 553.669,509.092 552.012,513.896C549.575,520.266 547.601,526.117 544.55,531.337C543.087,533.84 539.584,535.149 536.839,536.651C535.279,531.925 533.885,527.547 532.491,523.169C533.945,521.001 535.088,518.516 536.91,516.722C542.66,511.062 545.142,503.786 548.269,496.627C550.995,490.386 554.641,483.945 559.553,479.399C567.151,472.367 576.078,466.737 584.652,460.817C587.027,459.177 590.123,458.551 592.925,457.565C617.167,449.036 632.448,431.788 641.094,408.091C642.625,403.896 644.022,399.652 645.775,395.21C643.876,407.999 641.407,420.97 639.563,434.029C637.42,449.21 635.354,464.431 634.11,479.704C632.593,498.327 631.988,517.024 630.94,535.687C630.727,539.476 630.299,543.254 629.961,547.488Z" style="fill:rgb(227,229,230);fill-rule:nonzero;"/>
    <path d="M531.529,207.227C534.107,208.437 536.4,209.454 538.443,210.838C546.282,216.148 547.424,223.299 541.06,230.231C538.201,233.345 534.614,236.263 530.776,237.931C505.354,248.976 479.23,250.023 452.671,242.452C451.875,242.225 451.111,241.875 450.349,241.545C436.724,235.641 435.566,227.128 447.327,217.559C474.184,203.841 502.097,200.881 531.529,207.227Z" style="fill:rgb(46,48,52);fill-rule:nonzero;"/>
    <path d="M324.803,369.302C331.194,367.985 337.37,366.942 343.545,365.895C359.555,363.181 374.923,366.148 389.676,372.047C396.181,374.647 402.014,378.958 408.058,382.646C409.019,383.232 409.482,384.636 410.174,385.661C409.946,386.122 409.717,386.582 409.489,387.042C407.662,386.527 405.641,386.353 404.037,385.444C385.175,374.761 364.789,370.897 343.383,372.107C336.163,372.516 329.004,374.012 321.383,375.007C322.162,373.193 323.375,371.384 324.803,369.302Z" style="fill:rgb(227,229,230);fill-rule:nonzero;"/>
    <path d="M600.01,617.049C593.293,621.558 586.901,626.677 579.799,630.463C556.475,642.896 531.497,650.863 505.632,655.923C490.058,658.97 474.371,661.511 458.66,663.756C449.656,665.043 440.508,665.371 431.415,665.966C424.295,666.431 417.156,666.976 410.031,666.91C384.315,666.671 358.676,665.542 333.107,662.207C306.87,658.785 281.145,653.401 256.151,644.828C237.703,638.501 219.997,630.488 204.404,618.107C207.262,613.309 209.492,608.559 212.852,604.827C225.148,591.169 241.34,583.578 258.017,576.839C262.431,575.055 266.706,572.926 271.045,570.955C274.5,573.868 277.956,576.781 281.858,580.145C291.305,588.391 301.816,593.612 312.464,598.714C313.553,600.431 314.768,601.819 315.977,603.612C312.446,618.743 318.227,628.302 332.91,630.623C339.052,631.594 345.496,631.181 351.748,630.691C354.324,630.489 357.067,628.799 359.125,627.063C360.23,626.131 360.534,623.618 360.354,621.908C359.811,616.728 358.855,611.591 358.391,606.241C361.88,604.025 365.037,602.005 368.563,599.932C396.632,592.408 418.089,575.814 436.393,554.056C442.708,554.734 448.657,555.067 454.499,556.039C473.853,559.256 493.345,561.923 512.454,566.255C537.557,571.947 561.547,580.982 582.311,596.759C589.489,602.214 596.823,607.93 600.01,617.049Z" style="fill:rgb(215,216,218);fill-rule:nonzero;"/>
    <path d="M600.351,616.995C596.823,607.93 589.489,602.214 582.311,596.759C561.547,580.982 537.557,571.947 512.454,566.255C493.345,561.923 473.853,559.256 454.499,556.039C448.657,555.067 442.708,554.734 436.544,553.748C447.053,536.994 454.818,519.38 457.095,499.542C457.776,499.672 458.457,499.802 459.138,499.933C458.803,505.468 458.467,511.003 458.146,516.308C462.086,516.121 466.288,515.922 470.315,515.731C469.834,511.806 469.097,508.39 469.054,504.966C468.901,492.776 472.423,481.392 477.381,470.424C478.02,469.009 479.835,468.125 481.105,466.995C479.564,473.718 477.488,480.374 476.633,487.183C475.766,494.091 476.107,501.15 475.966,509.004C477.059,515.602 476.979,521.875 479.406,526.95C483.369,535.237 489.63,541.873 500.037,543.02C502.429,544.101 504.571,545.002 507.198,545.918C510.83,545.96 513.978,546.002 517.125,546.008C523.37,546.019 529.146,544.52 534.478,540.562C535.522,539.314 536.264,538.157 537.005,536.999C539.584,535.149 543.087,533.84 544.55,531.337C547.601,526.117 549.575,520.266 551.997,514.269C557.787,515.822 563.789,517.306 569.316,519.829C585.444,527.192 600.493,536.28 612.291,549.857C619.814,558.513 624.699,568.423 623.889,580.193C623.152,590.886 618.044,599.808 610.894,607.529C607.76,610.914 604.108,613.819 600.351,616.995Z" style="fill:rgb(202,203,205);fill-rule:nonzero;"/>
    <path d="M270.882,570.665C266.706,572.926 262.431,575.055 258.017,576.839C241.34,583.578 225.148,591.169 212.852,604.827C209.492,608.559 207.262,613.309 204.243,617.81C190.149,607.977 179.439,595.737 179.192,577.66C179.038,566.414 184.468,556.872 191.887,548.637C204.952,534.134 221.37,524.571 239.483,517.003C240.174,517.748 240.514,518.542 240.929,519.652C246.367,539.449 256.708,555.994 270.882,570.665Z" style="fill:rgb(202,203,205);fill-rule:nonzero;"/>
    <path d="M481.442,466.937C479.835,468.125 478.02,469.009 477.381,470.424C472.423,481.392 468.901,492.776 469.054,504.966C469.097,508.39 469.834,511.806 470.315,515.731C466.288,515.922 462.086,516.121 458.146,516.308C458.467,511.003 458.803,505.468 459.138,499.933C458.457,499.802 457.776,499.672 457.095,499.542C454.818,519.38 447.053,536.994 436.128,553.696C418.089,575.814 396.632,592.408 368.394,599.599C366.071,599.243 364.216,598.813 362.512,599.148C352.272,601.163 343.091,599.779 335.867,591.461C340.907,590.322 345.907,588.938 350.996,588.088C369.388,585.016 385.732,577.641 400.505,566.207C410.46,558.501 419.06,549.778 426.369,539.53C436.02,525.998 441.668,510.9 444.893,494.828C446.417,487.232 446.996,479.447 448.187,470.996C450.46,461.803 452.551,453.362 454.642,444.92C456.45,446.807 458.232,448.72 460.071,450.577C465.941,456.508 473.903,456.593 479.868,450.567C484.42,445.969 488.572,440.973 493.142,436.393C510.294,419.202 535.94,414.146 558.455,423.353C560.106,424.028 561.447,425.46 562.932,426.54C562.771,426.982 562.611,427.424 562.451,427.867C560.6,427.732 558.713,427.782 556.903,427.434C541.326,424.444 526.212,424.972 512.001,432.994C498.815,440.437 489.636,451.482 483.117,464.948C482.78,465.644 482.23,466.237 481.442,466.937Z" style="fill:rgb(227,229,230);fill-rule:nonzero;"/>
    <path d="M584.059,277.042C593.01,269.235 602.81,268.902 611.832,276.319C624.157,286.451 629.281,300.293 630.862,315.636C631.863,325.348 630.963,334.959 626.625,343.893C619.989,357.559 606.527,360.957 594.225,352.239C572.831,337.079 567.341,297.567 584.059,277.042Z" style="fill:rgb(46,48,52);fill-rule:nonzero;"/>
    <path d="M454.632,444.502C452.551,453.362 450.46,461.803 448.191,470.555C434.809,460.22 419.093,456.852 402.772,454.99C391.759,453.734 383.104,448.465 377.779,438.323C380.011,436.85 382.094,435.855 383.93,434.52C392.872,428.023 401.562,421.16 410.701,414.956C419.857,408.74 429.56,403.543 440.71,401.468C443.954,400.864 446.919,398.76 450.011,397.343C457.698,401.259 460.661,406.354 459.583,415.65C458.667,423.55 456.977,431.361 455.609,439.208C455.325,440.841 454.953,442.459 454.632,444.502M421.41,446.962C428.05,449.917 434.691,452.872 442.056,456.15C444.571,444.233 447.385,432.306 449.535,420.26C451.175,411.074 447.628,408.469 438.998,411.947C423.473,418.203 410.039,427.577 398.4,439.557C397.241,440.749 396.31,442.162 395.44,443.262C404.226,444.475 412.429,445.609 421.41,446.962Z" style="fill:rgb(40,39,43);fill-rule:nonzero;"/>
    <path d="M449.69,397.136C446.919,398.76 443.954,400.864 440.71,401.468C429.56,403.543 419.857,408.74 410.701,414.956C401.562,421.16 392.872,428.023 383.93,434.52C382.094,435.855 380.011,436.85 377.695,438.007C368.689,422.145 372.619,401.353 385.982,392.137C388.855,390.155 391.482,389.559 395.208,390.608C399.743,391.884 404.741,391.479 409.531,391.893C420.764,392.866 432,393.82 443.216,394.965C445.312,395.179 447.321,396.252 449.69,397.136Z" style="fill:rgb(46,48,52);fill-rule:nonzero;"/>
    <path d="M534.176,540.652C529.146,544.52 523.37,546.019 517.125,546.008C513.978,546.002 510.83,545.96 507.194,545.569C504.517,538.798 502.33,532.391 500.144,525.984C507.575,526.355 515.074,528.578 522.364,525.102C523.958,524.343 525.631,523.749 527.787,523.427C530.263,529.401 532.219,535.027 534.176,540.652Z" style="fill:rgb(227,229,230);fill-rule:nonzero;"/>
    <path d="M335.578,591.272C343.091,599.779 352.272,601.163 362.512,599.148C364.216,598.813 366.071,599.243 368.025,599.653C365.037,602.005 361.88,604.025 357.937,606.188C347.905,606.358 339.583,603.707 332.153,597.462C327.899,602.595 322.122,603.45 315.984,603.206C314.768,601.819 313.553,600.431 312.857,598.63C322.091,598.442 328.878,595.678 328.693,588.138C330.572,588.142 332.073,588.137 333.575,588.132C334.147,589.115 334.718,590.099 335.578,591.272Z" style="fill:rgb(40,39,43);fill-rule:nonzero;"/>
    <path d="M499.786,542.84C489.63,541.873 483.369,535.237 479.406,526.95C476.979,521.875 477.059,515.602 476.037,509.415C477.239,510.012 478.73,510.863 479.545,512.143C483.46,518.296 489.244,521.724 496.259,524.495C495.367,531.404 496.692,537.282 499.786,542.84Z" style="fill:rgb(227,229,230);fill-rule:nonzero;"/>
    <path d="M333.958,588.085C332.073,588.137 330.572,588.142 328.358,588.109C327.421,588.059 327.197,588.047 326.973,588.036C324.025,585.919 320.84,584.06 318.189,581.621C314.702,578.414 315.635,574.629 320.178,574.266C326.93,573.727 333.794,573.742 340.543,574.32C344.987,574.701 346.275,579.364 342.943,582.32C340.391,584.583 337.23,586.158 333.958,588.085Z" style="fill:rgb(239,163,177);fill-rule:nonzero;"/>
    <path d="M380.913,539.35C384.699,536.672 388.034,534.018 391.584,531.695C393.009,530.762 394.908,530.553 396.591,530.015C396.522,531.796 397.129,534.048 396.272,535.281C391.258,542.494 384.166,546.357 375.391,547.128C370.132,547.589 364.885,548.203 359.618,548.543C358.527,548.613 356.766,548.051 356.411,547.277C355.991,546.363 356.392,544.162 357.087,543.813C359.506,542.598 362.148,541.562 364.812,541.154C370.02,540.357 375.299,540.03 380.913,539.35Z" style="fill:rgb(46,48,52);fill-rule:nonzero;"/>
    <path d="M305.916,545.311C304.664,546.639 303.298,548.417 301.974,548.387C297.188,548.279 292.422,547.483 287.637,547.093C279.14,546.4 272.42,542.543 267.593,535.625C266.808,534.5 267.384,532.426 267.331,530.791C268.894,531.163 271.118,531.002 271.915,531.991C277.823,539.324 285.684,541.317 294.577,541.166C298.693,541.097 303.039,540.809 305.916,545.311Z" style="fill:rgb(46,48,52);fill-rule:nonzero;"/>
    <path d="M326.747,588.308C327.197,588.047 327.421,588.059 327.981,588.1C328.878,595.678 322.091,598.442 312.983,598.301C301.816,593.612 291.305,588.391 282.158,580.292C284.532,580.677 287.264,580.956 289.536,582.128C300.134,587.593 311.669,588.631 323.222,589.618C324.284,589.708 325.419,588.946 326.747,588.308Z" style="fill:rgb(231,232,233);fill-rule:nonzero;"/>
    <path d="M500.037,543.02C496.692,537.282 495.367,531.404 496.641,524.625C497.766,524.604 498.818,525.027 500.006,525.717C502.33,532.391 504.517,538.798 506.708,545.554C504.571,545.002 502.429,544.101 500.037,543.02Z" style="fill:rgb(46,48,52);fill-rule:nonzero;"/>
    <path d="M534.478,540.562C532.219,535.027 530.263,529.401 528.158,523.388C528.563,522.105 529.116,521.21 529.669,520.314C530.457,521.08 531.245,521.845 532.262,522.89C533.885,527.547 535.279,531.925 536.839,536.651C536.264,538.157 535.522,539.314 534.478,540.562Z" style="fill:rgb(46,48,52);fill-rule:nonzero;"/>
    <path d="M557.282,501.042C557.809,499.683 558.372,497.891 559.592,497.04C570.282,489.579 581.662,482.927 588.04,470.65C588.589,470.862 589.137,471.074 589.685,471.286C589.431,472.921 589.528,474.717 588.867,476.167C583.004,489.024 571.997,495.743 559.197,500.812C558.529,501.086 558.076,501.066 557.282,501.042Z" style="fill:rgb(202,203,205);fill-rule:nonzero;"/>
    <path d="M254.055,445.952C247.898,451.148 242.068,456.182 236.29,461.171C228.467,449.452 220.21,437.081 211.284,423.711C213.877,423.102 215.791,422.243 217.691,422.274C229.22,422.46 252.394,433.372 261.018,442.68C258.729,443.753 256.555,444.772 254.055,445.952Z" style="fill:rgb(239,182,192);fill-rule:nonzero;"/>
    <path d="M315.977,603.612C322.122,603.45 327.899,602.595 332.153,597.462C339.583,603.707 347.905,606.358 357.605,606.384C358.855,611.591 359.811,616.728 360.354,621.908C360.534,623.618 360.23,626.131 359.125,627.063C357.067,628.799 354.324,630.489 351.748,630.691C345.496,631.181 339.052,631.594 332.91,630.623C318.227,628.302 312.446,618.743 315.977,603.612Z" style="fill:rgb(239,163,177);fill-rule:nonzero;"/>
    <path d="M421.021,446.852C412.429,445.609 404.226,444.475 395.44,443.262C396.31,442.162 397.241,440.749 398.4,439.557C410.039,427.577 423.473,418.203 438.998,411.947C447.628,408.469 451.175,411.074 449.535,420.26C447.385,432.306 444.571,444.233 442.056,456.15C434.691,452.872 428.05,449.917 421.021,446.852Z" style="fill:rgb(239,182,192);fill-rule:nonzero;"/>
</svg>
