<svg t="1736410222830" class="icon" viewBox="0 0 1024 1024" version="1.1" xmlns="http://www.w3.org/2000/svg">
    <path
        d="M826.425579 952.30871H366.359427c-66.046307 0-120.238148-54.191841-120.238148-120.238148V371.439912c0-66.046307 54.191841-120.238148 120.238148-120.238148h460.63065c66.046307 0 120.238148 54.191841 120.238148 120.238148v460.63065c0 66.046307-54.191841 120.238148-120.802646 120.238148zM366.359427 318.377067c-28.789416 0-52.498346 23.708931-52.498347 52.498346v460.630651c0 28.789416 23.708931 52.498346 52.498347 52.498346h460.63065c28.789416 0 52.498346-23.708931 52.498346-52.498346V371.439912c0-28.789416-23.708931-52.498346-52.498346-52.498346 0-0.564498-460.63065-0.564498-460.63065-0.564499z"
        fill="currentColor"></path>
    <path
        d="M197.009923 772.798236c-66.046307 0-120.238148-54.191841-120.238148-120.238148V191.929438c0-66.046307 54.191841-120.238148 120.238148-120.238148h460.63065c66.046307 0 120.238148 54.191841 120.238148 120.238148 0 18.628445-15.241455 33.869901-33.869901 33.8699s-33.869901-15.241455-33.8699-33.8699c0-28.789416-23.708931-52.498346-52.498347-52.498346H197.009923c-28.789416 0-52.498346 23.708931-52.498346 52.498346v460.63065c0 28.789416 23.708931 52.498346 52.498346 52.498346 18.628445 0 33.869901 15.241455 33.869901 33.869901s-15.241455 33.869901-33.869901 33.869901z"
        fill="currentColor"></path>
</svg>