<svg xmlns="http://www.w3.org/2000/svg" fill="none" viewBox="0 0 24 24" stroke-width="1.5" stroke="currentColor">
    <path stroke-linecap="round" stroke-linejoin="round"
        d="M4.5 3.75h4.379a1.5 1.5 0 0 1 1.06.44l2.121 2.12a1.5 1.5 0 0 0 1.06.44H19.5A2.25 2.25 0 0 1 21.75 9v9a2.25 2.25 0 0 1-2.25 2.25h-15A2.25 2.25 0 0 1 2.25 18V6A2.25 2.25 0 0 1 4.5 3.75Z" />
    <path stroke-linecap="round" stroke-linejoin="round"
        d="M12 8.5l1.45 2.94 3.25.47-2.35 2.29.55 3.23L12 15.75l-2.9 1.53.55-3.23-2.35-2.29 3.25-.47L12 8.5Z" />
</svg>