<svg xmlns="http://www.w3.org/2000/svg" fill="none" viewBox="0 0 24 24" stroke-width="1.5" stroke="currentColor">

  <path stroke-linecap="round" stroke-linejoin="round"
    d="M4.5 3.75h4.379a1.5 1.5 0 0 1 1.06.44l2.121 2.12a1.5 1.5 0 0 0 1.06.44H19.5A2.25 2.25 0 0 1 21.75 9v9a2.25 2.25 0 0 1-2.25 2.25h-15A2.25 2.25 0 0 1 2.25 18V6A2.25 2.25 0 0 1 4.5 3.75Z" />

  <g transform="translate(6 5)">
    <path stroke-linecap="round" stroke-linejoin="round"
      d="M3 6v6a1 1 0 0 0 1 1h4a1 1 0 0 0 1-1V6M2 6h8M4 4h4a.5.5 0 0 1 .5.5V6h-5V4.5a.5.5 0 0 1 .5-.5Z" />
  </g>
</svg>