<svg xmlns="http://www.w3.org/2000/svg" viewBox="0 0 24 24" fill="none" stroke="currentColor" stroke-width="1.5"
    stroke-linecap="round" stroke-linejoin="round">

    <path d="M4 5a1 1 0 1 0 2 0a1 1 0 1 0 -2 0" />
    <path d="M11 5a1 1 0 1 0 2 0a1 1 0 1 0 -2 0" />
    <path d="M18 5a1 1 0 1 0 2 0a1 1 0 1 0 -2 0" />

    <path d="M4 12a1 1 0 1 0 2 0a1 1 0 1 0 -2 0" />
    <path d="M11 12a1 1 0 1 0 2 0a1 1 0 1 0 -2 0" />
    <path d="M18 12a1 1 0 1 0 2 0a1 1 0 1 0 -2 0" />

    <path d="M4 19a1 1 0 1 0 2 0a1 1 0 1 0 -2 0" />
    <path d="M11 19a1 1 0 1 0 2 0a1 1 0 1 0 -2 0" />
    <path d="M18 19a1 1 0 1 0 2 0a1 1 0 1 0 -2 0" />

    <animate attributeName="opacity" values="0.4;1;0.4" dur="2.2s" repeatCount="indefinite" />

</svg>